# xmcd
#
# Track frame offsets:
#	150
#	13284
#	30711
#	41957
#	58909
#	74913
#	91900
#	121685
#	149272
#	172542
#	199718
#	222070
#	242356
#	269848
#
# Disc length: 3909 seconds
#
# Revision: 0
# Processed by: cddbd v1.5PL3 Copyright (c) Steve Scherf et al.
# Submitted via: dBpowerAMP V4.0
#
DISCID=ce0f430e
DTITLE=goss pal - l'étrange
DYEAR=2004
DGENRE=Ballad
TTITLE0=et si c'était faux
TTITLE1=une rose
TTITLE2=les mots
TTITLE3=chanson pour toi
TTITLE4=seul
TTITLE5=l'etrange
TTITLE6=comme un ange
TTITLE7=guerre de rien
TTITLE8=l'amour
TTITLE9=prie
TTITLE10=un autre homme
TTITLE11=un je t'aime
TTITLE12=la déclaration de joie
TTITLE13=paradis blanc
EXTD=goss pal
EXTT0=
EXTT1=
EXTT2=
EXTT3=
EXTT4=
EXTT5=
EXTT6=
EXTT7=
EXTT8=
EXTT9=
EXTT10=
EXTT11=
EXTT12=
EXTT13=
PLAYORDER=
